<?xml version="1.0" encoding="UTF-8" standalone="no"?>
<svg
   viewBox="0 0 16 16"
   version="1.1"
   id="svg1"
   sodipodi:docname="down-long.svg"
   width="16"
   height="16"
   inkscape:version="1.3.2 (091e20e, 2023-11-25, custom)"
   xmlns:inkscape="http://www.inkscape.org/namespaces/inkscape"
   xmlns:sodipodi="http://sodipodi.sourceforge.net/DTD/sodipodi-0.dtd"
   xmlns="http://www.w3.org/2000/svg"
   xmlns:svg="http://www.w3.org/2000/svg">
  <defs
     id="defs1" />
  <sodipodi:namedview
     id="namedview1"
     pagecolor="#505050"
     bordercolor="#eeeeee"
     borderopacity="1"
     inkscape:showpageshadow="0"
     inkscape:pageopacity="0"
     inkscape:pagecheckerboard="0"
     inkscape:deskcolor="#505050"
     inkscape:zoom="12.140625"
     inkscape:cx="16.720721"
     inkscape:cy="25.904762"
     inkscape:window-width="1920"
     inkscape:window-height="991"
     inkscape:window-x="-9"
     inkscape:window-y="-9"
     inkscape:window-maximized="1"
     inkscape:current-layer="svg1" />
  <!--! Font Awesome Free 6.6.0 by @fontawesome - https://fontawesome.com License - https://fontawesome.com/license/free (Icons: CC BY 4.0, Fonts: SIL OFL 1.1, Code: MIT License) Copyright 2024 Fonticons, Inc. -->
  <path
     d="m 3.0624999,10.453125 c -0.11875,0.275 -0.0625,0.59375 0.14375,0.8125 l 4.25,4.5 c 0.1406249,0.15 0.3375,0.234375 0.54375,0.234375 0.20625,0 0.403125,-0.08437 0.54375,-0.234375 l 4.2500001,-4.5 c 0.20625,-0.21875 0.2625,-0.5375 0.14375,-0.8125 -0.11875,-0.275 -0.390625,-0.4531252 -0.6875,-0.4531252 H 9.9999997 V 0.99999998 C 9.9999997,0.446875 9.5531246,0 8.9999998,0 H 6.9999999 c -0.553125,0 -1,0.446875 -1,0.99999998 V 9.9999998 h -2.25 c -0.3,0 -0.56875,0.1781252 -0.6875,0.4531252 z"
     id="path1"
     style="stroke-width:0.03125" />
</svg>
