<?xml version="1.0" encoding="UTF-8" standalone="no"?>
<svg
   viewBox="0 0 16 16"
   version="1.1"
   id="svg1"
   sodipodi:docname="left-long.svg"
   width="16"
   height="16"
   inkscape:version="1.3.2 (091e20e, 2023-11-25, custom)"
   xmlns:inkscape="http://www.inkscape.org/namespaces/inkscape"
   xmlns:sodipodi="http://sodipodi.sourceforge.net/DTD/sodipodi-0.dtd"
   xmlns="http://www.w3.org/2000/svg"
   xmlns:svg="http://www.w3.org/2000/svg">
  <defs
     id="defs1" />
  <sodipodi:namedview
     id="namedview1"
     pagecolor="#505050"
     bordercolor="#eeeeee"
     borderopacity="1"
     inkscape:showpageshadow="0"
     inkscape:pageopacity="0"
     inkscape:pagecheckerboard="0"
     inkscape:deskcolor="#505050"
     inkscape:zoom="48.5625"
     inkscape:cx="7.989704"
     inkscape:cy="8"
     inkscape:window-width="1920"
     inkscape:window-height="991"
     inkscape:window-x="-9"
     inkscape:window-y="-9"
     inkscape:window-maximized="1"
     inkscape:current-layer="svg1" />
  <!--! Font Awesome Free 6.6.0 by @fontawesome - https://fontawesome.com License - https://fontawesome.com/license/free (Icons: CC BY 4.0, Fonts: SIL OFL 1.1, Code: MIT License) Copyright 2024 Fonticons, Inc. -->
  <path
     d="m 5.5468749,12.9375 c -0.275,0.118749 -0.5937499,0.0625 -0.8125,-0.14375 L 0.23437499,8.5437499 C 0.08437499,8.4031249 0,8.2062499 0,7.9999999 0,7.7937499 0.08437499,7.5968749 0.23437499,7.4562499 L 4.7343749,3.2062501 c 0.2187501,-0.2062499 0.5375,-0.2624999 0.8125,-0.14375 0.275,0.11875 0.453125,0.390625 0.453125,0.6875 V 5.9999999 H 15 c 0.553124,0 1,0.4468751 1,1.0000001 v 1.9999998 c 0,0.5531251 -0.446876,1 -1,1 H 5.9999999 V 12.25 c 0,0.3 -0.178125,0.56875 -0.453125,0.6875 z"
     id="path1"
     style="stroke-width:0.03125" />
</svg>
