<?xml version="1.0" encoding="UTF-8" standalone="no"?>
<svg
   viewBox="0 0 16 16"
   version="1.1"
   id="svg1"
   sodipodi:docname="magnifying-glass.svg"
   width="16"
   height="16"
   inkscape:version="1.3.2 (091e20e, 2023-11-25, custom)"
   xmlns:inkscape="http://www.inkscape.org/namespaces/inkscape"
   xmlns:sodipodi="http://sodipodi.sourceforge.net/DTD/sodipodi-0.dtd"
   xmlns="http://www.w3.org/2000/svg"
   xmlns:svg="http://www.w3.org/2000/svg">
  <defs
     id="defs1" />
  <sodipodi:namedview
     id="namedview1"
     pagecolor="#505050"
     bordercolor="#eeeeee"
     borderopacity="1"
     inkscape:showpageshadow="0"
     inkscape:pageopacity="0"
     inkscape:pagecheckerboard="0"
     inkscape:deskcolor="#505050"
     inkscape:zoom="48.5625"
     inkscape:cx="7.989704"
     inkscape:cy="8"
     inkscape:window-width="1920"
     inkscape:window-height="991"
     inkscape:window-x="-9"
     inkscape:window-y="-9"
     inkscape:window-maximized="1"
     inkscape:current-layer="svg1" />
  <!--! Font Awesome Free 6.6.0 by @fontawesome - https://fontawesome.com License - https://fontawesome.com/license/free (Icons: CC BY 4.0, Fonts: SIL OFL 1.1, Code: MIT License) Copyright 2024 Fonticons, Inc. -->
  <path
     d="m 13.000635,6.5003174 c 0,1.434445 -0.465648,2.7595097 -1.250061,3.8345626 l 3.956443,3.959568 c 0.390644,0.390644 0.390644,1.02505 0,1.415694 -0.390644,0.390644 -1.02505,0.390644 -1.415694,0 L 10.33488,11.750574 C 9.2598271,12.538112 7.9347624,13.000635 6.5003174,13.000635 2.9095171,13.000635 0,10.091118 0,6.5003174 0,2.9095171 2.9095171,0 6.5003174,0 10.091118,0 13.000635,2.9095171 13.000635,6.5003174 Z M 6.5003174,11.000537 a 4.5002197,4.5002197 0 1 0 0,-9.0004393 4.5002197,4.5002197 0 1 0 0,9.0004393 z"
     id="path1"
     style="stroke-width:0.0312515" />
</svg>
