<?xml version="1.0" encoding="UTF-8" standalone="no"?>
<svg
   viewBox="0 0 16 16"
   version="1.1"
   id="svg1"
   sodipodi:docname="right-long.svg"
   width="16"
   height="16"
   inkscape:version="1.3.2 (091e20e, 2023-11-25, custom)"
   xmlns:inkscape="http://www.inkscape.org/namespaces/inkscape"
   xmlns:sodipodi="http://sodipodi.sourceforge.net/DTD/sodipodi-0.dtd"
   xmlns="http://www.w3.org/2000/svg"
   xmlns:svg="http://www.w3.org/2000/svg">
  <defs
     id="defs1" />
  <sodipodi:namedview
     id="namedview1"
     pagecolor="#505050"
     bordercolor="#eeeeee"
     borderopacity="1"
     inkscape:showpageshadow="0"
     inkscape:pageopacity="0"
     inkscape:pagecheckerboard="0"
     inkscape:deskcolor="#505050"
     inkscape:zoom="24.28125"
     inkscape:cx="16.061776"
     inkscape:cy="10.357786"
     inkscape:window-width="1920"
     inkscape:window-height="991"
     inkscape:window-x="-9"
     inkscape:window-y="-9"
     inkscape:window-maximized="1"
     inkscape:current-layer="svg1" />
  <!--! Font Awesome Free 6.6.0 by @fontawesome - https://fontawesome.com License - https://fontawesome.com/license/free (Icons: CC BY 4.0, Fonts: SIL OFL 1.1, Code: MIT License) Copyright 2024 Fonticons, Inc. -->
  <path
     d="m 10.453125,12.9375 c 0.275,0.11875 0.59375,0.0625 0.8125,-0.14375 l 4.5,-4.2500001 C 15.915625,8.4031249 16,8.20625 16,7.9999999 16,7.7937499 15.915625,7.596875 15.765625,7.45625 l -4.5,-4.25 C 11.046875,3 10.728125,2.94375 10.453125,3.0625 10.178125,3.18125 10,3.453125 10,3.75 V 5.9999999 H 0.99999996 C 0.44687498,5.9999999 0,6.446875 0,7 V 8.9999998 C 0,9.5531252 0.44687498,9.9999999 0.99999996,9.9999999 H 10 V 12.25 c 0,0.3 0.178125,0.56875 0.453125,0.6875 z"
     id="path1"
     style="stroke-width:0.03125" />
</svg>
