<?xml version="1.0" encoding="UTF-8" standalone="no"?>
<svg
   viewBox="0 0 16 16"
   version="1.1"
   id="svg1"
   sodipodi:docname="up-long.svg"
   width="16"
   height="16"
   inkscape:version="1.3.2 (091e20e, 2023-11-25, custom)"
   xmlns:inkscape="http://www.inkscape.org/namespaces/inkscape"
   xmlns:sodipodi="http://sodipodi.sourceforge.net/DTD/sodipodi-0.dtd"
   xmlns="http://www.w3.org/2000/svg"
   xmlns:svg="http://www.w3.org/2000/svg">
  <defs
     id="defs1" />
  <sodipodi:namedview
     id="namedview1"
     pagecolor="#505050"
     bordercolor="#eeeeee"
     borderopacity="1"
     inkscape:showpageshadow="0"
     inkscape:pageopacity="0"
     inkscape:pagecheckerboard="0"
     inkscape:deskcolor="#505050"
     inkscape:zoom="6.0703125"
     inkscape:cx="22.239382"
     inkscape:cy="58.069498"
     inkscape:window-width="1920"
     inkscape:window-height="991"
     inkscape:window-x="-9"
     inkscape:window-y="-9"
     inkscape:window-maximized="1"
     inkscape:current-layer="svg1" />
  <!--! Font Awesome Free 6.6.0 by @fontawesome - https://fontawesome.com License - https://fontawesome.com/license/free (Icons: CC BY 4.0, Fonts: SIL OFL 1.1, Code: MIT License) Copyright 2024 Fonticons, Inc. -->
  <path
     d="M 12.9375,5.5468751 C 13.05625,5.2718751 13,4.9531251 12.79375,4.7343749 L 8.5437501,0.234375 C 8.403125,0.084375 8.2062499,0 8,0 7.79375,0 7.596875,0.084375 7.4562499,0.234375 L 3.20625,4.7343749 C 3,4.9531251 2.94375,5.2718751 3.0625,5.5468751 3.18125,5.8218751 3.45,6 3.75,6 H 6 v 9 c 0,0.553125 0.4468749,1 1,1 h 2 c 0.553125,0 1,-0.446875 1,-1 V 6 h 2.25 c 0.3,0 0.56875,-0.1781249 0.6875,-0.4531249 z"
     id="path1"
     style="stroke-width:0.03125" />
</svg>
